<svg data-v-fde0c5aa="" xmlns="http://www.w3.org/2000/svg" viewBox="0 0 300 300" class="iconLeft"><!----><defs data-v-fde0c5aa=""><!----></defs><rect data-v-fde0c5aa="" fill="transparent" x="0" y="0" width="300px" height="300px" class="logo-background-square"></rect><defs data-v-fde0c5aa=""><linearGradient data-v-fde0c5aa="" gradientTransform="rotate(25)" id="cc6b7585-fc8d-4de0-ad08-69dbed1bb123" x1="0%" y1="0%" x2="100%" y2="0%"><stop data-v-fde0c5aa="" offset="0%" stop-color="#D0E9FF" stop-opacity="1"></stop><stop data-v-fde0c5aa="" offset="100%" stop-color="#0107F4" stop-opacity="1"></stop></linearGradient></defs><g data-v-fde0c5aa="" id="7884ce1e-e246-4280-96cb-06f649cfa5b3" fill="url(#cc6b7585-fc8d-4de0-ad08-69dbed1bb123)" transform="matrix(2.465656361460959,0,0,2.465656361460959,92.31070331187905,130.6569257737958)"><path d="M2.21 12.62L0.21 5.78L1.62 5.78L2.91 10.69L4.35 5.78L5.51 5.78L6.95 10.68L8.24 5.78L9.65 5.78L7.64 12.61L6.41 12.61L4.94 7.56L3.45 12.62L2.21 12.62ZM13.62 12.72L13.62 12.72Q12.56 12.72 11.82 12.24L11.82 12.24L11.82 12.24Q11.09 11.76 10.72 10.97L10.72 10.97L10.72 10.97Q10.36 10.18 10.36 9.22L10.36 9.22L10.36 9.22Q10.36 8.29 10.71 7.47L10.71 7.47L10.71 7.47Q11.06 6.66 11.77 6.16L11.77 6.16L11.77 6.16Q12.48 5.66 13.50 5.66L13.50 5.66L13.50 5.66Q14.58 5.66 15.26 6.16L15.26 6.16L15.26 6.16Q15.93 6.65 16.23 7.42L16.23 7.42L16.23 7.42Q16.52 8.19 16.52 9.04L16.52 9.04L16.52 9.04Q16.52 9.41 16.48 9.63L16.48 9.63L11.76 9.63L11.76 9.63Q11.81 10.48 12.27 11.01L12.27 11.01L12.27 11.01Q12.74 11.54 13.62 11.54L13.62 11.54L13.62 11.54Q14.17 11.54 14.60 11.37L14.60 11.37L14.60 11.37Q15.04 11.20 15.40 10.81L15.40 10.81L16.32 11.58L16.32 11.58Q15.76 12.17 15.10 12.44L15.10 12.44L15.10 12.44Q14.45 12.72 13.62 12.72L13.62 12.72ZM11.76 8.62L15.24 8.62L15.24 8.62Q15.19 7.79 14.76 7.27L14.76 7.27L14.76 7.27Q14.32 6.76 13.49 6.76L13.49 6.76L13.49 6.76Q12.70 6.76 12.27 7.28L12.27 7.28L12.27 7.28Q11.83 7.80 11.76 8.62L11.76 8.62ZM21.51 12.74L21.51 12.74Q20.86 12.74 20.34 12.50L20.34 12.50L20.34 12.50Q19.82 12.25 19.48 11.79L19.48 11.79L19.48 12.61L18.13 12.61L18.13 2.95L19.48 2.95L19.48 6.59L19.48 6.59Q19.82 6.13 20.34 5.88L20.34 5.88L20.34 5.88Q20.86 5.63 21.50 5.63L21.50 5.63L21.50 5.63Q22.39 5.63 23.04 6.11L23.04 6.11L23.04 6.11Q23.68 6.59 24.01 7.40L24.01 7.40L24.01 7.40Q24.34 8.20 24.34 9.19L24.34 9.19L24.34 9.19Q24.34 10.17 24.01 10.98L24.01 10.98L24.01 10.98Q23.68 11.79 23.04 12.26L23.04 12.26L23.04 12.26Q22.40 12.74 21.51 12.74L21.51 12.74ZM21.18 11.56L21.18 11.56Q21.79 11.56 22.20 11.24L22.20 11.24L22.20 11.24Q22.61 10.92 22.81 10.38L22.81 10.38L22.81 10.38Q23.02 9.84 23.02 9.19L23.02 9.19L23.02 9.19Q23.02 8.53 22.81 7.99L22.81 7.99L22.81 7.99Q22.61 7.45 22.20 7.13L22.20 7.13L22.20 7.13Q21.79 6.80 21.18 6.80L21.18 6.80L21.18 6.80Q20.57 6.80 20.16 7.12L20.16 7.12L20.16 7.12Q19.75 7.44 19.55 7.98L19.55 7.98L19.55 7.98Q19.35 8.52 19.35 9.19L19.35 9.19L19.35 9.19Q19.35 9.85 19.55 10.39L19.55 10.39L19.55 10.39Q19.75 10.92 20.16 11.24L20.16 11.24L20.16 11.24Q20.57 11.56 21.18 11.56L21.18 11.56ZM30.32 2.95L31.66 2.95L31.66 12.61L30.40 12.61L30.36 11.75L30.36 11.75Q30.01 12.24 29.48 12.49L29.48 12.49L29.48 12.49Q28.96 12.74 28.29 12.74L28.29 12.74L28.29 12.74Q27.41 12.74 26.76 12.26L26.76 12.26L26.76 12.26Q26.12 11.79 25.79 10.98L25.79 10.98L25.79 10.98Q25.45 10.17 25.45 9.19L25.45 9.19L25.45 9.19Q25.45 8.21 25.79 7.40L25.79 7.40L25.79 7.40Q26.12 6.59 26.76 6.11L26.76 6.11L26.76 6.11Q27.40 5.63 28.27 5.63L28.27 5.63L28.27 5.63Q28.92 5.63 29.45 5.88L29.45 5.88L29.45 5.88Q29.98 6.13 30.32 6.59L30.32 6.59L30.32 2.95ZM28.62 11.58L28.62 11.58Q29.24 11.58 29.64 11.26L29.64 11.26L29.64 11.26Q30.05 10.94 30.24 10.40L30.24 10.40L30.24 10.40Q30.43 9.86 30.43 9.19L30.43 9.19L30.43 9.19Q30.43 8.52 30.24 7.98L30.24 7.98L30.24 7.98Q30.05 7.44 29.64 7.12L29.64 7.12L29.64 7.12Q29.24 6.80 28.62 6.80L28.62 6.80L28.62 6.80Q28.01 6.80 27.60 7.13L27.60 7.13L27.60 7.13Q27.19 7.45 27.00 7.99L27.00 7.99L27.00 7.99Q26.80 8.53 26.80 9.19L26.80 9.19L26.80 9.19Q26.80 9.85 27.00 10.39L27.00 10.39L27.00 10.39Q27.19 10.94 27.60 11.26L27.60 11.26L27.60 11.26Q28.01 11.58 28.62 11.58L28.62 11.58ZM36.52 12.72L36.52 12.72Q35.46 12.72 34.72 12.24L34.72 12.24L34.72 12.24Q33.99 11.76 33.62 10.97L33.62 10.97L33.62 10.97Q33.26 10.18 33.26 9.22L33.26 9.22L33.26 9.22Q33.26 8.29 33.61 7.47L33.61 7.47L33.61 7.47Q33.96 6.66 34.67 6.16L34.67 6.16L34.67 6.16Q35.38 5.66 36.40 5.66L36.40 5.66L36.40 5.66Q37.48 5.66 38.16 6.16L38.16 6.16L38.16 6.16Q38.83 6.65 39.13 7.42L39.13 7.42L39.13 7.42Q39.42 8.19 39.42 9.04L39.42 9.04L39.42 9.04Q39.42 9.41 39.38 9.63L39.38 9.63L34.66 9.63L34.66 9.63Q34.71 10.48 35.17 11.01L35.17 11.01L35.17 11.01Q35.64 11.54 36.52 11.54L36.52 11.54L36.52 11.54Q37.07 11.54 37.51 11.37L37.51 11.37L37.51 11.37Q37.94 11.20 38.30 10.81L38.30 10.81L39.22 11.58L39.22 11.58Q38.66 12.17 38.00 12.44L38.00 12.44L38.00 12.44Q37.35 12.72 36.52 12.72L36.52 12.72ZM34.66 8.62L38.14 8.62L38.14 8.62Q38.09 7.79 37.66 7.27L37.66 7.27L37.66 7.27Q37.22 6.76 36.39 6.76L36.39 6.76L36.39 6.76Q35.60 6.76 35.17 7.28L35.17 7.28L35.17 7.28Q34.73 7.80 34.66 8.62L34.66 8.62ZM40.96 4.37L40.96 2.95L42.39 2.95L42.39 4.37L40.96 4.37ZM41.02 12.61L41.02 5.78L42.33 5.78L42.33 12.61L41.02 12.61ZM44.50 12.61L44.50 5.78L45.81 5.78L45.81 6.78L45.81 6.78Q46.18 6.23 46.73 5.94L46.73 5.94L46.73 5.94Q47.28 5.65 47.92 5.65L47.92 5.65L47.92 5.65Q48.73 5.65 49.27 6.03L49.27 6.03L49.27 6.03Q49.80 6.42 50.05 7.06L50.05 7.06L50.05 7.06Q50.30 7.70 50.30 8.48L50.30 8.48L50.30 12.61L48.99 12.61L48.99 8.63L48.99 8.63Q48.99 7.86 48.63 7.35L48.63 7.35L48.63 7.35Q48.28 6.83 47.55 6.83L47.55 6.83L47.55 6.83Q46.76 6.83 46.29 7.37L46.29 7.37L46.29 7.37Q45.81 7.92 45.81 8.97L45.81 8.97L45.81 12.61L44.50 12.61ZM56.63 2.95L57.96 2.95L57.96 12.61L56.70 12.61L56.66 11.75L56.66 11.75Q56.31 12.24 55.79 12.49L55.79 12.49L55.79 12.49Q55.26 12.74 54.59 12.74L54.59 12.74L54.59 12.74Q53.71 12.74 53.07 12.26L53.07 12.26L53.07 12.26Q52.42 11.79 52.09 10.98L52.09 10.98L52.09 10.98Q51.75 10.17 51.75 9.19L51.75 9.19L51.75 9.19Q51.75 8.21 52.09 7.40L52.09 7.40L52.09 7.40Q52.42 6.59 53.06 6.11L53.06 6.11L53.06 6.11Q53.70 5.63 54.58 5.63L54.58 5.63L54.58 5.63Q55.23 5.63 55.75 5.88L55.75 5.88L55.75 5.88Q56.28 6.13 56.63 6.59L56.63 6.59L56.63 2.95ZM54.93 11.58L54.93 11.58Q55.54 11.58 55.95 11.26L55.95 11.26L55.95 11.26Q56.36 10.94 56.55 10.40L56.55 10.40L56.55 10.40Q56.74 9.86 56.74 9.19L56.74 9.19L56.74 9.19Q56.74 8.52 56.55 7.98L56.55 7.98L56.55 7.98Q56.36 7.44 55.95 7.12L55.95 7.12L55.95 7.12Q55.54 6.80 54.93 6.80L54.93 6.80L54.93 6.80Q54.32 6.80 53.91 7.13L53.91 7.13L53.91 7.13Q53.50 7.45 53.30 7.99L53.30 7.99L53.30 7.99Q53.10 8.53 53.10 9.19L53.10 9.19L53.10 9.19Q53.10 9.85 53.30 10.39L53.30 10.39L53.30 10.39Q53.50 10.94 53.91 11.26L53.91 11.26L53.91 11.26Q54.32 11.58 54.93 11.58L54.93 11.58ZM60.08 4.37L60.08 2.95L61.51 2.95L61.51 4.37L60.08 4.37ZM60.14 12.61L60.14 5.78L61.46 5.78L61.46 12.61L60.14 12.61ZM63.62 12.61L63.62 5.78L64.91 5.78L64.91 6.96L64.91 6.96Q65.15 6.34 65.69 5.99L65.69 5.99L65.69 5.99Q66.22 5.63 66.84 5.63L66.84 5.63L66.84 5.63Q67.18 5.63 67.49 5.74L67.49 5.74L67.49 5.74Q67.79 5.85 68.01 6.05L68.01 6.05L67.43 7.16L67.43 7.16Q67.09 6.91 66.64 6.91L66.64 6.91L66.64 6.91Q66.14 6.91 65.74 7.20L65.74 7.20L65.74 7.20Q65.35 7.49 65.13 8.05L65.13 8.05L65.13 8.05Q64.90 8.62 64.90 9.44L64.90 9.44L64.90 12.61L63.62 12.61Z"></path></g><defs data-v-fde0c5aa=""><linearGradient data-v-fde0c5aa="" gradientTransform="rotate(25)" id="10ce88a1-16c4-44c5-9668-df3af1d78b58" x1="0%" y1="0%" x2="100%" y2="0%"><stop data-v-fde0c5aa="" offset="0%" stop-color="#EE00FF" stop-opacity="1"></stop><stop data-v-fde0c5aa="" offset="100%" stop-color="#3400FF" stop-opacity="1"></stop></linearGradient></defs><g data-v-fde0c5aa="" id="74b29965-cfcc-466a-a612-52593cb157cf" stroke="none" fill="url(#10ce88a1-16c4-44c5-9668-df3af1d78b58)" transform="matrix(0.4470088489341797,0,0,0.4470088489341797,37.89905849526953,124.69907559815528)"><path d="M93.8 16.1H4.7V89h40.5v-8.101H12.8V24.2h72.9v32.401h8.1z"></path><path d="M77.6 48.5h-8.1v32.399h-8.101V89H69.5v8.101h8.1V89h8.1v-8.101h-8.1z"></path><path d="M53.3 72.8h8.1v8.1h-8.1zM85.7 72.8h8.1v8.1h-8.1z"></path></g><!----></svg>